<mxfile host="app.diagrams.net" modified="2022-11-24T08:34:01.847Z" agent="5.0 (Windows NT 10.0; Win64; x64) AppleWebKit/537.36 (KHTML, like Gecko) Chrome/107.0.0.0 Safari/537.36" version="20.6.0" etag="scdfIUaZSSEGed6MN7cA" type="github">
  <diagram id="gi5mR4D6upwa34GcbijU" name="Page-1">
    <mxGraphModel dx="4382" dy="1915" grid="1" gridSize="10" guides="1" tooltips="1" connect="1" arrows="1" fold="1" page="1" pageScale="1" pageWidth="827" pageHeight="1169" math="0" shadow="0">
      <root>
        <mxCell id="0" />
        <mxCell id="1" parent="0" />
        <mxCell id="WF8zPx64UMlin_1-M565-1" value="" style="shape=image;verticalLabelPosition=bottom;labelBackgroundColor=default;verticalAlign=top;aspect=fixed;imageAspect=0;image=data:image/jpeg,/9j/4AAQSkZJRgABAgAAAQABAAD/2wBDAAgGBgcGBQgHBwcJCQgKDBQNDAsLDBkSEw8UHRofHh0aHBwgJC4nICIsIxwcKDcpLDAxNDQ0Hyc5PTgyPC4zNDL/2wBDAQkJCQwLDBgNDRgyIRwhMjIyMjIyMjIyMjIyMjIyMjIyMjIyMjIyMjIyMjIyMjIyMjIyMjIyMjIyMjIyMjIyMjL/wAARCAD4AmQDASIAAhEBAxEB/8QAHwAAAQUBAQEBAQEAAAAAAAAAAAECAwQFBgcICQoL/8QAtRAAAgEDAwIEAwUFBAQAAAF9AQIDAAQRBRIhMUEGE1FhByJxFDKBkaEII0KxwRVS0fAkM2JyggkKFhcYGRolJicoKSo0NTY3ODk6Q0RFRkdISUpTVFVWV1hZWmNkZWZnaGlqc3R1dnd4eXqDhIWGh4iJipKTlJWWl5iZmqKjpKWmp6ipqrKztLW2t7i5usLDxMXGx8jJytLT1NXW19jZ2uHi4+Tl5ufo6erx8vP09fb3+Pn6/8QAHwEAAwEBAQEBAQEBAQAAAAAAAAECAwQFBgcICQoL/8QAtREAAgECBAQDBAcFBAQAAQJ3AAECAxEEBSExBhJBUQdhcRMiMoEIFEKRobHBCSMzUvAVYnLRChYkNOEl8RcYGRomJygpKjU2Nzg5OkNERUZHSElKU1RVVldYWVpjZGVmZ2hpanN0dXZ3eHl6goOEhYaHiImKkpOUlZaXmJmaoqOkpaanqKmqsrO0tba3uLm6wsPExcbHyMnK0tPU1dbX2Nna4uPk5ebn6Onq8vP09fb3+Pn6/9oADAMBAAIRAxEAPwD20axHmEOm3cG83knyyCRjgc8q3/fJqaLVLSZFdJG2ttxlCM7m2j9acdPtTJI5i+aRg7EMRkgY9eOCfzJ61GukWSMrCN8hg+fNb5iCCCeeeQOtABFqtvPf/ZItxkAJfII246dfXn8q47X/ABbqU16unaZNFYhY/OnulUTuqlmVUUEbVYlSTnOBjjnjs7fSrO0n86GIrJt2Al2OBknABPua53xJ4Okv7m31DSZIYryGPyWinLCOaPcWALDJUqWYg4P3iMdMXCykubYiopOL5dzK0PxZfWGqRWmr6gb+yuEJjunhWOSNwu/DbAFYFQx4AIx3zx2U2s28N4kBztIfdIwIUbcZAOOev6Vxvg/w4+s2Wn6/qYhjt7izWS1s4JGbYsiD5nc4JbYduAABluWyMdtLpNnLKZWjJc7sZclRu64XOOfpRUcXL3dhUlJQXPuNbWbNEZnMq7SQwMLZXChiSMdMMDSXGqLHbJPFGWVnZGMmUCEZzuODjkY5GPekt9IgjilSctM0u7cSzdGUKRySeijvVh7C3kABV1wzOCkjKct15Bzz6VBoV31q1hDtOHjRFVi23cPmGeoyKemrWjglWkJ4wvlNls5xgY5+635Gkl0WwmwHgOBH5WFkZRtxjHB9OKk/s212gCMrgKAVdgQFzjBByPvN+dAFeHXbOWFXYujmFZimxiQDt6cc8sB+NOj1eGaQrEjkER7Cyld28sOMjoApOadDothBgRwkALtA8xiAMqe59VX8qcNLtozuiDI25CDuLYCkkAAngcsMD1oAh/tZwsMxtGNtM+1HRtze2Vx3x2z74p8utWMPlb5WxKoaPEbHcCMjHHpUq6ZaLOswjbcjFkBkYhSeuBnAqP8AsWwLRt5J/d7do8xsDaNo4zzxxQBGdYU3ccCQli5IySRg7sY5HXqT9O9LHq6yRSyeSR5ciJjd13Ntqd9OgLiRV2SB94bJPOcn8/60n9lWYkVxGwIIOBI2CQ24EjODgnPNADYb2djeedbxotscEpKWLHaG7qOzCo4NUd7qC3mtxG8yB1KSbhtIJ9Bzx+tXfs8QEw2/645k5PzHaF/kBVdNJsk5EbMdu3Lysx24Ixknpgn86AI/7Skknlgt7YSSRFtwaTaMA4GODyeePbrUVrr0N46JHEwMjgR7jjcpUsG/TBHb8RVn+yrTYF2yDG7LCZwzZ5OWzk/jTv7NtFaJ0hVXhcvGRn5WIwfwx26UALY3yX0bMqlSuMg+4B/rj6g1wWo6jrtz4o1yCDxBe2VtaXUcMMMENuVANvDITl4mYnc7d676yskso2VGLFsZJ9gB/TP1Jrz2X/kbvFH/AGEIv/SS3row0VKpZnLjJyhSvF2Yeb4h/wChu1X/AMB7P/4xTZLnXYYnll8Y6mkaKWZmgswFA6knyKsVQ1uxk1PQ72yiZVkmiZVLdM9gfb1rvdCnb4TyViqresimnii9kSRv+E11hBHH5p82wt49yZA3LuthuHI5Geo9a0orrXpo96eLtW25I+a1tFPBx0MHtWJqf9q6xp9zbro7W+bdlzPJGWZyRhUKsRjg5Jx249Mu90PVpYLdXglmRUuAI0aMlHaUsr5ZgB8pGGGSvpzWfsoL7Jr7ao/t2+aOyM3iADJ8Xap/4D2f/wAYqOC71y5t454fGOpvFIodHEFnhlIyD/qK5xPD90Z/Pmg8y4N8C8rOCWgMIVh/uls5XHJ5xWz4ctZLHw3p1pLbfZpYYEjkj+XhgME/KSOTk/jVKjBvWJMsRUSupl7zfEP/AEN2q/8AgPZ//GKo61qXiXTdB1G/h8Wak0ttbSTIr29oVJVSQDiAHHFalZHiv/kTtb/7B8//AKLanKhTs9CYYms5Jcx65RRRXknvhRRRQAUUUUAFFFFABRRRQAUUUUAcr45v9QsoNHi06/lsXu9Q8mWWJI2bYIJpMDzFYfeRe1c95viH/obtV/8AAez/APjFbXj/AO94b/7Cp/8ASS5rLrvwtKEoNyXU8rHVqkKiUXbQh83xD/0N2q/+A9n/APGKhub/AFqziEs/jHVEQukYP2a0PzOwVRxB3JA/GrlZuu2s15pyRW6b3F3bSEZA+VJ0Zjz6KpP4V0OhTS0ickcTVbSchf7Z1T7ILr/hNNU8gzeRv+zWn+s8zy8f8e/9/j/61QDxHenT7u/HjnUvstm7xzyfZrX5GX7wx9nz+XXtWP8A8I3df2WDm6+0/wBqC48j7T+78v7Z5mdudv3Pmx1z71Ufw3qhtbq1W3HkXZnmmXzF/wBYryGLv/FuiOe3l84zWbpR/lNlWl/P1OzS41+SNXTxfqpVgCD9ns+Qf+2FO83xD/0N2q/+A9n/APGKLRGis4I3GGWNVI9CBU1a+wp9jB4qt/MQ+b4h/wChu1X/AMB7P/4xXQ+Br/UL2DWItRv5b57TUPJillSNW2GCGTB2Ko+87dqxK1PAH3vEn/YVH/pJbVzYqlCME4rqdmBrVJ1GpO+n+R2NFFFcB6oUUUUAFFFFABRRRQAUUUUAFFFFABRRRQAV5xqOo67c+KNcgg8QXtlbWl1HDDDBDblQDbwyE5eJmJ3O3evR680l/wCRu8Uf9hCL/wBJLeujDRUqlmcuMnKFK8XZh5viH/obtV/8B7P/AOMVWvdV1jToke58YauN7bEVLO1kZ2wTgKtuSTgE8DoDV+sjX7aS5htilnLciOXefs83lTR/KQGQ7lGecEE8gnr0rvlQppaRPKjiardnJlmz1LWb+3E9t4x1V4ySvNtaKQQcEEG3BBB7GrHm+If+hu1X/wAB7P8A+MVxN1o2uXSI1xDcTxbZViiYwmWMkjaznIXdjPzLkj8TWkmhXcVvf3nlF9UW4SaBzIMyhFT5M9AGIcc4+8TUKnD+Q0daov8Al4dJ5viH/obtV/8AAez/APjFHm+If+hu1X/wHs//AIxXH6hoOqPb2YaOS5Jt5DKkZQlLh23FhvYY5JAYZK4461uaFpUlncX1zdpm6llAEzNuLIEQfgNwY4455pqlBu3KS69RK/Oanm+If+hu1X/wHs//AIxVHWtS8S6boOo38PizUmltraSZFe3tCpKqSAcQA44rUrI8V/8AIna3/wBg+f8A9FtTlQp2ehMMTWckuY9coooryT3wooooAbIpeNlV2QkEB1xlfcZBH5isH/hHtU/6HPXP+/Nl/wDI9dBWXrmsDSbWMRQm5v7l/KtLUHBlkxnr2UDJZuwB+lAHL+C9C1GbwL4elTxZrMCPplsyxRxWZVAYl+UboCcDpySfUmu2tYZLe1jhluZbp0GDNMFDv7nYqr+QFc/4Nmay0qDw1eKItQ0i3it2XORNEq7UmQ91YLz6MCO3PTUAFFFFABRRRQAUUUUAFFFFABRRRQAUUUUAFFFFABXmkv8AyN3ij/sIRf8ApJb16XXmkv8AyN3ij/sIRf8ApJb104T+IcWP/gk1FFFeoeGFFFFABRRRQAVkeK/+RO1v/sHz/wDotq16yPFf/Ina3/2D5/8A0W1KXwsun8aPXKKKK8M+mCiiigAooooAKKKKACiiigAooooA47x/97w3/wBhU/8ApJc1l1qeP/veG/8AsKn/ANJLmsuvSwf8N+p4uY/xV6fqwooorrOAKKKKACiiigArU8Afe8Sf9hUf+kltWXWp4A+94k/7Co/9JLauTGfw16nfl38V+n6o7GiiivNPaCiiigAooooAKKKKACiiigAooooAKKKKACvNJf8AkbvFH/YQi/8ASS3r0uvNJf8AkbvFH/YQi/8ASS3rpwn8Q4sf/BJqKKK9Q8MKKKKACiiigArI8V/8idrf/YPn/wDRbVr1keK/+RO1v/sHz/8AotqUvhZdP40euUUUV4Z9MFFFFADJpPJgkl2O+xS21BljgdAO5rE0PTbqS6k13V0C6jcJsigzkWcOciMHux4LkdTgdFFLrt1Nba34aVJnjhm1B4pQGwrj7NMVU+vzKCB6gVgXHiDVrTUtcFiPtSDVfJTchnMSLaQswSIMrMN5OducEk4PNAHSa9pEt+sN7YSLBq1mS9rM33Tn70b46o2AD6cEcgVf066kvdPguJrWW0ldcvBLjdG3cZHB57jr1rjtJ8c3urajbvBaRPpstwlt5iK3zbow/mK7EcZIwm3JXnPaug8NajqGrWMt7erbJG08scEcIbIVJGTLEnknbngDGe9AG1RRRQAUUUUAFFFFABRRRQAUUUUAFFFFABRRRQAV5zqOna7beKNcng8P3t7bXdzHNDNBNbhSBbwxkEPKrA7kbtXo1FXCbg7ozq0o1Y8stjzTyvEP/Qo6r/4EWf8A8fo8rxD/ANCjqv8A4EWf/wAfr0uitvrdQ5vqFE808rxD/wBCjqv/AIEWf/x+q73OsR6jDYN4V1UXU0Uk0aedafMiFAxz5+ODIn5+xr1Osm40+eTxdp2pKF+zwWF1A5zzvkkt2Xj6RN+lH1uoH1CicV5XiH/oUdV/8CLP/wCP0eV4h/6FHVf/AAIs/wD4/XpdFH1uoH1CieaeV4h/6FHVf/Aiz/8Aj9Uda03xLqWg6jYQ+E9SWW5tpIUZ7i0CgspAJxOTjmvWaKHiqjVhrA0U7hRRRXMdgUUUUAFFFFABRRRQAUUUUAFFFFAHK+ObDUL2DR5dOsJb57TUPOliieNW2GCaPI3so+869657yvEP/Qo6r/4EWf8A8fr0uitqdedNWic9XDU6suaR5p5XiH/oUdV/8CLP/wCP0eV4h/6FHVf/AAIs/wD4/XpdFX9bqGX1CieWX9zrGmadc3954V1WO1tYnmmfzrQ7UUEscCfJwAelWPK8Q/8AQo6r/wCBFn/8frtfFOnz6t4R1rTbUKbi7sJ4IgxwC7xsoye3JrWo+t1A+oUTzTyvEP8A0KOq/wDgRZ//AB+jyvEP/Qo6r/4EWf8A8fr0uij63UD6hRPNPK8Q/wDQo6r/AOBFn/8AH66HwNYahZQaxLqNhLYvd6h50UUrxs2wQQx5OxmH3kbvXVUVFSvOorSNaWGp0pc0QooorE6AooooAKKKKACiiigAooooAKKKKACiiigArznUdO1228Ua5PB4fvb22u7mOaGaCa3CkC3hjIIeVWB3I3avRqKuE3B3RnVpRqx5ZbHmnleIf+hR1X/wIs//AI/R5XiH/oUdV/8AAiz/APj9el0Vt9bqHN9QonmnleIf+hR1X/wIs/8A4/Vd7nWI9RhsG8K6qLqaKSaNPOtPmRCgY58/HBkT8/Y16nWTcafPJ4u07UlC/Z4LC6gc553ySW7Lx9Im/Sj63UD6hROK8rxD/wBCjqv/AIEWf/x+jyvEP/Qo6r/4EWf/AMfr0uij63UD6hRPNPK8Q/8AQo6r/wCBFn/8fqjrWm+JdS0HUbCHwnqSy3NtJCjPcWgUFlIBOJycc16zRQ8VUasNYGincKKKK5jsCiiigCvfWFnqdo1rf2kF1bvjdFPGHU46cHiuP8US2OjtpWg2XhbSb2CaOe4SC4YQxQ+WY1JUCJ+T53oO/rXcVwvjL/kcdC/7B99/6Mta0pRUppMyrzcKbkt0J4f1KO+8XwwXvhfSbK8NnJNDeW0/nOFjMce3JhQjiUYwTwCK7eGCG2iEUESRRgk7EUKMk5JwPUkn8a4HQf8Akodj/wBgq8/9G2tehU60FCbiicNUlUpKUtwooorI3CiiigAooooAKKKKACiiigAooooAKKKKACiiigAooooAKwbuRx4+0iMOwRtLvmK54JEtpg49sn8zW9WXPf8Al+KtP07yIz59lcz+cfvL5bwLtHsfMyf90UAalFFFABRRRQAUUUUAFFFFABRRRQAUUUUAFFFFABRRRQAUUUUAFFFFAGD43keLwD4jkjdkdNLuWVlOCCImwQa3qy/Et/8A2V4V1fUfIjn+y2U0/kyfdk2oW2n2OMVqUAFFFFABRRRQAUUUUAFFFFABRRRQAUUUUAFFFFABRRRQAUUUUAFFFFABRRRQAVg3cjjx9pEYdgjaXfMVzwSJbTBx7ZP5mt6sue/8vxVp+neRGfPsrmfzj95fLeBdo9j5mT/uigDUooooAKKKKACiiigAooooAK4Xxl/yOOhf9g++/wDRlrXdVwvjL/kcdC/7B99/6Mta1ofxEc+K/gyK+g/8lDsf+wVef+jbWvQq890H/kodj/2Crz/0ba16FVYn+K/66E4L+BH5/mFFFFYHUFY3irVb3RPDV/qVhZpdT28DyhZJNiKFUsWbuRx0HJJHTqNmqup6fFq2k3mmzs6w3cDwSNGQGCupUkZBGcH0oAfFcGSYxGGQYjV/MwNjZz8oOc5GOfqKzNJ1uS78PTancwsWimuUMdtGzMwimdBheSSQg/E1qRwNHcNJ58pQxqghO3apBPzDjOTkA5OPlGAOc86fBUbWF3pza3qh0+5aZmtSLfYpkdnOD5W4jcxOCSOxyOKALOneLtP1G9WyWKeK6M7W5ifY21hH5nJRmXBX0J54OKhn8bafFa29xHa31ws1o97iGJSUhQgMzZYdMjgZJ7A1FD4FtbaX7Rb6nfw3XnicTRrCu0iMxkBPL2AFT029QD1zm1B4Q0+3sorVJropHp8mngs6kmNyCSTj73A56e1AFPWvG8VlpmoXNhZ3VytqjAXIhLQeYE37Tg7unfGM8ZzxT7jxXNczw6bp1o1vqk119nKX6fLCBEZTIQjfMNoGAGByecYNOn8EWk1vPaDUtSisp8tJaxSIELlNhbO3dyOcZ255xVu98LWd7dT3guLqC7kmSeOeFlDQOqeWCmQRypIIYEHJ4oAqab4mY2+ofaLqw1aWzlRN2jkEndxh4y7eWQQclmxgE5GDUTfEHShafaFtr6QJFPNOscasYEhbbIzENg4J/hJyOmalm8E213DcfbdSvrq6uJIXe5mERJ8okouwJ5e0Fm4K985yAQ2HwHpsNpeW/wBqvXF3bXNtIzMgIWcguRhAAcjjjAz0oAfL4306HMctteR3XnCJbWQIjvlN4YEsFC7eeWBzwRnitzTdRttW02C/s3L286bkJGD9COxB4rH1DwdYahfNfGe4iuy6usiiN9uEKYCurKQQecg8gEYrZ0+xj03T4LOJ5HSFAoeQ5Zvc+59qALNFFFABRRWB4s8YaV4L0+1v9YMyWtxcrbeZEm/YxVm3MOuMIemT04oA36y57e1bxVp9y9ztvI7K5jig/vxs8Bdv+AlYx/wOptJ1nTddsEvtKvoLy2bpJC4YA+h9D7Hmqd1aTv420u8WJjbxadeRPJ2V3ktio/EI35GgDaooooAKKKKACiiigAooooAKKKKACiiigAooooAKKKKACiiigAooooAy/Etva3fhXV7a+ufs1nNZTRzz/wDPKMoQzfgMn8K1KxfGFpPf+Cdes7WJpbifTriKKNeru0bAAfUmtqgAooooAKKKKACiiigAooooAKKKKACiiigAooooAKKKKACiiigAooooAKKKKACsue3tW8Vafcvc7byOyuY4oP78bPAXb/gJWMf8DrUrFurSd/G2l3ixMbeLTryJ5Oyu8lsVH4hG/I0AbVFFFABRRRQAUUUUAFFFFABXC+Mv+Rx0L/sH33/oy1ruq4Xxl/yOOhf9g++/9GWta0P4iOfFfwZGXZx6lL4609dLu7S2n/sy8LPdWzTqV8224CrIhBzjnPY8c8dd9j8Yf9B3Q/8AwTTf/JVc7oP/ACUOx/7BV5/6Nta9CqsT/Ff9dCcF/Aj8/wAzn/sfjD/oO6H/AOCab/5Ko+x+MP8AoO6H/wCCab/5KroKKwOo5/7H4w/6Duh/+Cab/wCSqPsfjD/oO6H/AOCab/5KroKKAOf+x+MP+g7of/gmm/8Akqj7H4w/6Duh/wDgmm/+Sq6CigDn/sfjD/oO6H/4Jpv/AJKo+x+MP+g7of8A4Jpv/kqugooA5/7H4w/6Duh/+Cab/wCSqPsfjD/oO6H/AOCab/5KroKKAOf+x+MP+g7of/gmm/8Akqj7H4w/6Duh/wDgmm/+Sq6CigDn/sfjD/oO6H/4Jpv/AJKo+x+MP+g7of8A4Jpv/kqugooA5/7H4w/6Duh/+Cab/wCSqPsfjD/oO6H/AOCab/5KroKKAOf+x+MP+g7of/gmm/8AkqvLPj3ba+ngew/tLUdOu4m1OMJHaafJA+/y5cHLTPkdeMdxzxz7nWfq+haZr0MEOq2cd3FBKJkjkzt37WXJHQjDMMHI5oA+U/h14S8dXWpC98NS3OnsDta5ztj47PnhgCOV5I/u17Ppuu+NrgrNPq+kiS0kubKSP+zpGSVkm8syHEy8/uiRgAAO3HTHqUUUcMSRRIscaAKqIMBR6AV5dpX3dR/7Cuof+lctdGGpxnNqRx42rOnTTg7anceEdWu9a8Ox3t/5H2n7RcQOYEKIfKneMEKWYjIQHGT1rcrl/h7/AMiiP+whf/8ApXNXUVhJWbR1Qd4psKKKqWOqWOpPdJZXUc5tJvIn8s5CSABiuemQGH8utIot0VUg1SxudSudOguo5Lu1RHniU5MYfO3PoTtPHX8xUWq61Y6MkDXrzA3EnlRJDbyTO7bS2AqKT0Unp2oA0KKz7HW9P1KKOS0maVZJGi/1Tgo6jJVwRlCB2bHb1rQoAKKgjvLeW8ntEkzPAqNImD8obO3npztP5VPQAUVizeK9GgvXtZLp9ySiGSVbeRoY5CQArShditkgYLDk1tUAFFFV7++ttM0+4vryTy7a3jMkr7S21QMk4GSfwoAsUVm6Zrun6tLNDaySiaEK0kU9vJBIqnODtkVTg4POMcGtKgAooqCG8t7i5ubaKTdNbMqyrg/KSoYfoRQBPRRRQBi+MLuew8E69eWsrRXEGnXEsUi9UdY2II+hFbVZfiW4tbTwrq9zfW32mzhsppJ4P+esYQll/EZH41qUAFFFFABRRRQAUUUUAFFFFABRRRQAUUUUAFFFFABRRRQAUUUUAFFFFABRRRQAVi3V3OnjbS7NZWFvLp15K8fZnSS2Cn8A7fma2qy57i1XxVp9s9tuvJLK5kin/uRq8Adf+BFoz/wCgDUooooAKKKKACiiigAooooAK4Xxl/yOOhf9g++/9GWtd1XC+Mv+Rx0L/sH33/oy1rWh/ERz4r+DIr6D/wAlDsf+wVef+jbWvQq890H/AJKHY/8AYKvP/RtrXoVVif4r/roTgv4Efn+YUUUVgdQUUUUAFFFFABRRRQAUUUUAFFFFABRRRQAUUUUAFFFFABXlelfd1H/sK6h/6Vy16pXlelfd1H/sK6h/6Vy114P+I/Q4Mx/hL1/RnWfD3/kUR/2EL/8A9K5q6ivP/BfiWw0/w61rNb6q8iahfZMGk3UyHN1KeHSMqevY8dOtdB/wmWl/8+uuf+CK9/8AjNc0viZ2U/gR0Fc/pOnzaNea28Wn4t7i+ha3igKKPL8mGNmAyAApVyR1wpwDkZP+Ey0v/n11z/wRXv8A8Zo/4TLS/wDn11z/AMEV7/8AGaksjk0fydd1u6GmCayutMijMMRRTcSB52deSOSJF5YgHd164d4jhvft2gX1lps96tldvJNDA8auFaCVAR5jqD8zr3p3/CZaX/z665/4Ir3/AOM0f8Jlpf8Az665/wCCK9/+M0AY8Oi6xPrLas9m9sLq9kme3FwoaJBaeShZlJG4sAfl3YyOuK5q30a903UNKtb7w/LcWUk/FsfJWWdhBLu3qsnlPj5DuO0sckg4Ge9/4TLS/wDn11z/AMEV7/8AGaQ+MdKJBNprmR0/4kN7x/5BoA5iLw7r9vpN1HLYC6aZLNDG8okIRHkLLguocorIMM2Gx/F0NKPSdUsYbDTCTbXOpXFzYvbGVAyWbv5vmKqEhdiq6gDgGTHpXa/8Jlpf/Prrn/givf8A4zSf8JhpO8P9j1vcBgH+wb3OP+/NAHP3Gm+JLHQ5tC0y0u45luJ3t76BrVreRZJGdTMsuXGN3IVckjg88R6noeu3Pitr2DS9m28J+0xtHl4DCU5dpC/Uj5AqqMZ5PJ6X/hMtL/59dc/8EV7/APGaP+Ey0v8A59dc/wDBFe//ABmgDlovBN3BabotP23MenWBjbzhkXaSOZnzu+/t2Av3HGTyKo3HhLxDLZ6vEba4ku57W8jeYPCi3Zcnyxu3bm7Y3hQmMA469v8A8Jlpf/Prrn/givf/AIzR/wAJlpf/AD665/4Ir3/4zQBzi6Frc7azNa22p2wubBIVXUryN5ndXJ2o8btsUqWHLDlgeME1DdaDqUjSLa+HTDpMtyrLYSeTIYiIipcReaIsMxA5LYI3bcnI6n/hMtL/AOfXXP8AwRXv/wAZo/4TLS/+fXXP/BFe/wDxmgDk9P8ACOtHRbtru3camumW9tbs9yC2V3iVFYH5SylV3cdR6cdL4S0t9PvNZmXSH0u1uZ43gt2aM4AiVSdqMwXkHjPv3qf/AITLS/8An11z/wAEV7/8Zo/4TLS/+fXXP/BFe/8AxmgDoKK5/wD4TLS/+fXXP/BFe/8AxmvlTwh8U/FHg0pFZ3v2mwX/AJcrrLxgf7PdfwIHqDQB9b+JbD+1fCur6d58cH2qymg86T7se5Cu4+wzmtSvHpfizpnjDwLrmnNpupWer3GnXESWgtZJw7NGQNrIp4y6ZLBcbhXouk+LtG1rUPsFlLdfafKaYJcWM8GUUqGIMiKDguvT1FOztcXMr2NyiiikMKKKKACiiigAooooAKKKKACiiigAooooAKKKKACiiigAooooAKKKKACsuew8zxVp+o+fGPIsrmDyT95vMeBtw9h5eD/vCtSsG7jc+PtIkCMUXS75S2OATLaYGffB/I0Ab1FFFABRRRQAUUUUAFFFFABXC+Mv+Rx0L/sH33/oy1ruq4Xxl/yOOhf9g++/9GWta0P4iOfFfwZFfQf+Sh2P/YKvP/RtrXoVee6D/wAlDsf+wVef+jbWvQqrE/xX/XQnBfwI/P8AMKKKKwOoKKKKACiiigAooooAKKKKACiiigAooooAKKKKACiiigAryvSvu6j/ANhXUP8A0rlr1SvK9K+7qP8A2FdQ/wDSuWuvB/xH6HBmP8Jev6M6z4e/8iiP+whf/wDpXNXUVy/w9/5FEf8AYQv/AP0rmrqK5pfEzsp/AgoooqSwooooAKKKKACiiigAooooAKKKKACiiigAooooAK8f8HfAXStHEdzrs4vrpcHy4SVjB/3uGPPpt4ODur2CigDz/wAT2drp/ibw9a2dvFb28enXwSKJAiqPMtegHFN0H/kodj/2Crz/ANG2tWPGX/I46F/2D77/ANGWtV9B/wCSh2P/AGCrz/0ba12r/dn/AF1PNl/vq/roz0KiiiuI9IKKKKACiuc8fWv2rwJrY+0TwiOxnl/cvsL7Y2IUkc7c4yBjOMdMg6kwgv7eTTRevDP5KPILeULKiMSAfVQdrDPscEEZABformPB8sT+BfD9kbvyrmfSo2jw48zARAzqDnOCy84PJGetQ+Eglno8NsdQaPGsX0SCdw73OJp/k3NyTgbsjn5D2zQB1tFcd4sNj/b+nDXxbnRfs021bxgLZrnKbBKTlfu79u4Y+93xXIw+LLyxt3ttMFnpWnRmd7eaO8WW2ncBCFieSNcxguw2IM8HaQBQB6/RXlslyZtSvF129Z9L/teN9Rt5WHlwI1kjRhxgERGTj5uCUGf4sy2mv2emWWsDSIrOxsxc2yR3Gl3KT2xZ2ZWC71SKJgFG77wBYcE8EA9NoryuPxbr11pN7PDqiKbCxv7resUcnnmBx5YYgbdpU8lQM8EEVd1TxHrel376dJqKmH7Qge+cQwmMNCXCbmGwZYHBYE445JBoA9HorxHWLyPU7i+utTufD0eoy6LbNC94SshbM/zW54YMflPAPJXr36/UfE9/bzti8aznigtXtNNnRDJemT74ORuJz8vyY2kEnI4oA7+ivKbzx1qiXF6bLUVkBtrxkSZIv3LxuAn7tcsvG4ESNk4zheQLj6heSeIdNsr/AF3zbq31oRCyeONHaIRMVlIUA85zn7uCBjPNAHpVFFFABRRRQAVk3GoTx+LtO01Sv2eewup3GOd8cluq8/SVv0rWrLn+w/8ACVaf5nmf2h9iufIx93yt8HmZ993lY/GgDUooooAKKKKACiiigAooooAK4Xxl/wAjjoX/AGD77/0Za13VcL4y/wCRx0L/ALB99/6Mta1ofxEc+K/gyK+g/wDJQ7H/ALBV5/6Nta9Crz3Qf+Sh2P8A2Crz/wBG2tehVWJ/iv8AroTgv4Efn+YUUUVgdQUUUUAFFFFABRRRQAUUUUAFFFFABRRRQAUUUUAFFFFABXlelfd1H/sK6h/6Vy16pXlelfd1H/sK6h/6Vy114P8AiP0ODMf4S9f0Z1nw9/5FEf8AYQv/AP0rmrqK5f4e/wDIoj/sIX//AKVzV1Fc0viZ2U/gQUUUVJYUUUUAFFFFABRRRQAUUUUAFFFFABRRRQAUUUUAFFFFAHC+Mv8AkcdC/wCwfff+jLWq+g/8lDsf+wVef+jbWrHjL/kcdC/7B99/6Mtay7PTINV8dafBcSXaIumXjg2t3LbtnzbYctGykjnpnHT0Fdq/3Z/11PNl/vq/roz06iuf/wCEN0v/AJ+tc/8AB7e//HqP+EN0v/n61z/we3v/AMeriPSOgorn/wDhDdL/AOfrXP8Awe3v/wAeo/4Q3S/+frXP/B7e/wDx6gDoKK5//hDdL/5+tc/8Ht7/APHqP+EN0v8A5+tc/wDB7e//AB6gDoKK5/8A4Q3S/wDn61z/AMHt7/8AHqP+EN0v/n61z/we3v8A8eoA3yAQQRkHsaMDHQcVgf8ACG6X/wA/Wuf+D29/+PUf8Ibpf/P1rn/g9vf/AI9QB0FJtULtwMemKwP+EN0v/n61z/we3v8A8eo/4Q3S/wDn61z/AMHt7/8AHqAOgoIBGCMiuf8A+EN0v/n61z/we3v/AMeo/wCEN0v/AJ+tc/8AB7e//HqAOgowM5x0rn/+EN0v/n61z/we3v8A8eo/4Q3S/wDn61z/AMHt7/8AHqAOgwB0HWjHOe9c/wD8Ibpf/P1rn/g9vf8A49R/whul/wDP1rn/AIPb3/49QB0FFc//AMIbpf8Az9a5/wCD29/+PUf8Ibpf/P1rn/g9vf8A49QB0FcR8UPG914B8PWWrWtpDdeZfpbyxSkrlCjsdpHQ5QckEdeK1/8AhDdL/wCfrXP/AAe3v/x6vNPjd4RRPCOmx6X/AGrc3U2ppGsc+o3N0CPKlPCSOwzx1Az2HXBAOv8AB3xc8LeMPLgjuvsOotgfZLshWY+iN0bnoBz7CumuNPnk8XadqShfs8FhdQOc875JLdl4+kTfpXgnhD9n6/vlS48RTGygYf6peZSPYdF7EE5PYpXV6PosaW8sZ1LWm+yXl3aQt/a1ypWKO4dFUBXAHyovQDoK0pUnUdkY1q0aMeaR7NRXM+AJZpvCMRnuJ53S7vIhJPK0jlUuZVUFmJJwoA5PaumqGrOxqndXCiiikMKKKKACiiigArhfGX/I46F/2D77/wBGWtd1XC+Mv+Rx0L/sH33/AKMta1ofxEc+K/gyK+g/8lDsf+wVef8Ao21r0KvPdB/5KHY/9gq8/wDRtrXoVVif4r/roTgv4Efn+YUUUVgdQUUUUAFFFFABRRRQAUUUUAFFFFABRRRQAUUUUAFFFFABXlelfd1H/sK6h/6Vy16pXlelfd1H/sK6h/6Vy114P+I/Q4Mx/hL1/RnWfD3/AJFEf9hC/wD/AErmrqK5f4e/8iiP+whf/wDpXNXUVzS+JnZT+BBRRRUlhRRRQAUUUUAFFFFABRRRQAUUUUAFFFFABRRRQAUUUUAcL4y/5HHQv+wfff8Aoy1qvoP/ACUOx/7BV5/6NtaseMv+Rx0L/sH33/oy1qvoP/JQ7H/sFXn/AKNta7V/uz/rqebL/fV/XRnoVFFFcR6QUUUUAFFFFABRRRQAUUUUAFFFFABRRRQAUUUUAFFFFABRRRQAUUUUAFeV6V93Uf8AsK6h/wClcteqV5XpX3dR/wCwrqH/AKVy114P+I/Q4Mx/hL1/RnWfD3/kUR/2EL//ANK5q6iuX+Hv/Ioj/sIX/wD6VzV1Fc0viZ2U/gQUUUVJYUUUUAFFFFABXC+Mv+Rx0L/sH33/AKMta7quF8Zf8jjoX/YPvv8A0Za1rQ/iI58V/BkV9B/5KHY/9gq8/wDRtrXoVee6D/yUOx/7BV5/6Nta9CqsT/Ff9dCcF/Aj8/zCiiisDqCiiigAooooAKKKKACiiigAooooAKKKKACiiigAooooAK8r0r7uo/8AYV1D/wBK5a9UryvSvu6j/wBhXUP/AErlrrwf8R+hwZj/AAl6/ozrPh7/AMiiP+whf/8ApXNXUVy/w9/5FEf9hC//APSuauorml8TOyn8CCiiipLCiiigAooooAKKKKACiiigAooooAKKKKACiiigAooooA4Xxl/yOOhf9g++/wDRlrVfQf8Akodj/wBgq8/9G2tWPGX/ACOOhf8AYPvv/RlrVTRpY4PH1nLK6xxppF6zO5wFHm2vJNdq/wB2f9dTzZf76v66M9FornD4ln1U+X4asftynj7fOTFar7q2My/8ABH+0K6GMOIkEpUyYG4qMAnvgc4FcR6Q6iiigDmbi1MXxJ024+0Tv52nXY8tn/doFe3+6vQZySTyTnrgACLWhDea54S1S2vpJoJb0iJYpcwurW07bwBwxOBgnPHTGTnq6KAOA8c6p4cuGgtJ7zTnv5454Ld7u6VILUhtskpyR86MMDHzZBAwNxHYaXJG6TJHqa3wjKKSCpMf7tDgkdSwIfn+/wCmKv0UAeS393pdnY3Nze2dhdeKo72ZnjnuzBfcSMYhb4RmZSoQKFwpHXvSaj4n1zUdJ1yF71YZPsV80lvE6eba+XnbgBdy8DBLnndlccV61gZBwMjvS4Gc45oA8u1KfRGk1iXXH0u+vy6HT5NTuxCHtTEm17d1RuS245jGdx7fLUmpeNL+1OnmK4ltJRb2MktlcmPP71hvDFv3khAJyVCAFSSTyB6YVBxkDjp7UuBnOOaAPOBrHiGZFkGsmPz7XUbgKttGfL+zSqiBcjuG+bOc4421Hb+LtYvdYEMk0EQklEX2EugLRGEN5gXBkzklg2duBjrzXpdGBnOOaAPG/A9zDaSaLNpQ0e6nOjSedBpLYkMgjRgbkAkE5BUE4O5j6nGz/wAJjdRWgKa6t6k1vbvLcQxQj7JM8gBjySEQEZx5mSu3ndkCvS6TAwRgYPWgDyuLxd4hu7F5LfUU/wBEhupHdYUlMojmRFZiAAQEcsdoGcDGAa6fwbcJc6t4ieLVV1SMXEIW6XYd37le6AKcHjgD88111AGBgdKACiiigAooooAK8r0r7uo/9hXUP/SuWvVK8r0r7uo/9hXUP/SuWuvB/wAR+hwZj/CXr+jOs+Hv/Ioj/sIX/wD6VzV1Fcv8Pf8AkUR/2EL/AP8ASuauorml8TOyn8CCiiipLCiiigAooooAK4Xxl/yOOhf9g++/9GWtd1XC+Mv+Rx0L/sH33/oy1rWh/ERz4r+DIr6D/wAlDsf+wVef+jbWvQq890H/AJKHY/8AYKvP/RtrXoVVif4r/roTgv4Efn+YUUUVgdQUUUUAFFFFABRRRQAUUUUAFFFFABRRRQAUUUUAFFFFABXlelfd1H/sK6h/6Vy16pXlelfd1H/sK6h/6Vy114P+I/Q4Mx/hL1/RnWfD3/kUR/2EL/8A9K5q6iuX+Hv/ACKI/wCwhf8A/pXNXUVzS+JnZT+BBRRWJ4f1e+1S41eK+s0tHs7sQpGr722GKOQFiON3z9uB0yepks26K5hdc1W3102d3Bb3Aa3muPs1mpM0CIcR7mLbWL8gDC8g4yASLXiDUdRtbrR7PTHtYptQumhaS6haVUVYZJPuq68/IB170AbtFcraeJ7iPUW03UxAl1b3TwSvBExSVRB5wZRnKcdQd3II7g0628cWV5BayW2nahM12+22SNY2835C+QwfYBtU5ywI6EAkUAdRRXMWfi+O8kvpobeWe0hit3iWKM+aWkLhgwJAXaV5JwBg5NOg8caRNaS3BE8YigmmZWVST5T7JFG0kMwJXoSDuXBOaAOloriZPFl/9lXV3vtEsNNe5eGC2v38uWdUcoxEpcKrHaSF2txjJ542bzxXZWGrJYXNvdR73MaTMihHcIXwAW3EYB+YLtyMZzQBu0VysPj3T5VR/wCz9SSNooZy7wqAsMrbUlPzZ2kgjH3uCduOaq6r8QrGHS9Tl08bri3triW2eYAxzNF94AK27APqFyMkZHNAHaUVxmk+MyZ9VTUbq1uYLG3jnM9tayQMdxYbPKdmYn5Rgg4JOOtabeLIEil3abqC3UMgSW1ZEDplSwYsX8sKQDg7uvHXigDoKK5eLx5pM0TTxRXj26WiXckyxfKivnYp5yWJUgAA8/Wruh63Pq2oarBNZSWgs5Y41jmAD/NGrHOGKnr1B/WgDbooooA4Xxl/yOOhf9g++/8ARlrXOz+HIPEvjPSraaZ4Wt7K5uYmVVdd6y22NyMCGXnofboQDXReMv8AkcdC/wCwfff+jLWq+g/8lDsf+wVef+jbWu1f7s/66nmy/wB9X9dGSXVk9lcyS+JINXMTHJv9J1W9WAe7QJLmIf7oZR1JFdRJolhf6ZawfadQNvGN0UkOp3COwI6tIsgZ/wDgRNa1FcR6Rl2GgWened5E2pP5ybG+0alcT4H+z5jttPuMGqsfhDTY5FkW51slSCA2uXjDj1Blwfoa3qKAMnUPDtjqV0biefU0cgDFtqlzAnH+zHIq/jinf2BZ/wBl/wBnedqXkb9+/wDtK483P/XXfvx7bsVqUUAZOn+HbHTboXEE+pu4BGLnVLmdOf8AZkkZfxxVeTwhpskjSNc62CxJIXXLxRz6AS4H0Fb1FAGXf6BZ6j5PnzaknkpsX7PqVxBkf7Xluu4+5yaLfQLO2sbizjm1IxT/AH2k1K4kkH+7Izlk/wCAkVqUUAYtp4W0+zuo7iK41dnjOQJtYu5UP1V5Sp+hBou/C2n3l1JcS3Grq8hyRDrF3Eg+ipKFH0AFbVFAGXcaBZ3Njb2ck2pCKD7jR6lcRyH/AHpFcM//AAImiw0Cz07zvIm1J/OTY32jUrifA/2fMdtp9xg1qUUAYMfhDTY5FkW51slSCA2uXjDj1Blwfoasah4dsdSujcTz6mjkAYttUuYE4/2Y5FX8cVrUUAZf9gWf9l/2d52peRv37/7SuPNz/wBdd+/HtuxTdP8ADtjpt0LiCfU3cAjFzqlzOnP+zJIy/jitaigDBk8IabJI0jXOtgsSSF1y8Uc+gEuB9BVq/wBAs9R8nz5tSTyU2L9n1K4gyP8Aa8t13H3OTWpRQBl2+gWdtY3FnHNqRin++0mpXEkg/wB2RnLJ/wABIqG08LafZ3UdxFcauzxnIE2sXcqH6q8pU/Qg1tUUAYt34W0+8upLiW41dXkOSIdYu4kH0VJQo+gArzeyuU0We50iay1nzxe3skSnT7qdpIvtLkOH2MZBh0y2T94ZOTXsVZc9h5nirT9R8+MeRZXMHkn7zeY8Dbh7Dy8H/eFaUqrpu6Ma1GNaPLIzfAEU0PhGIT288Dvd3kojniaNwr3MrKSrAEZUg8jvXTUUVDd3c1SsrBRRRSGFFFFABRRRQAVwvjL/AJHHQv8AsH33/oy1ruq4Xxl/yOOhf9g++/8ARlrWtD+IjnxX8GRX0H/kodj/ANgq8/8ARtrXoVee6D/yUOx/7BV5/wCjbWvQqrE/xX/XQnBfwI/P8wooorA6gooooAKKKKACiiigAooooAKKKKACiiigAooooAKKKKACvK9K+7qP/YV1D/0rlr1SvK9K+7qP/YV1D/0rlrrwf8R+hwZj/CXr+jOr+HxA8Igngfb7/wD9K5q1bDxBp2qX8lrp8r3QiBL3ESFoFYEDZ5n3S3XgE4wc44z5Hp2l+J57J7maaK68M/bb3ZaCze58thdS7jLEksbSqTnj95/ujrXp2k3F5qHhxP7K1nRpZlbas8Fg/kIo/gMQm3Kw6cuMelc0viZ2U/gR0VZ8ekJBPfzQXNxFJe3MdxKy7TgosabRlT8pWMA9/mOCOMQ6fb+IY7oNqWqaZcW+DmO206SF89vmadx+lV5LTxaZGMet6IqEnaG0iUkDtk/aRn8hUlkeneFH0yW+kg1/VCbxpHkLrbkh26Pu8rcSvG0EkAADBAxV3WNEGrtYyC/u7KeymM0M1sIy24oyHIdGUja57Ut/Br0nk/2dqWm2+ExL9o095tzeq7Zk2j2OfrRbwa8tjcJc6lpsl43+olj090jT/eQzEt+DLQBVt/CdnBJFM11eS3SzyXElw8gEk0jx+USxUADCYAChQNorHPgFrfV7O+sdVu45xLuuLnEKyFRFIq/KI9jEmQ5LAk+vAxuWlr4nS6ja81fSJrcH95HDpckbsPZjcMB+Rou7XxO91I1nq+kQ25P7uObS5JHUe7C4UH8hQBQbwHpZsntknulVjAxYlHy0TMwYhlIbJdicgjPTGKrP4IjSfSraJnks7a+e/nnmkAkZj83lhVQDaX2MegGzGOmN64g15rG3S21LTY7xf9fLJp7vG/8AuoJgV/FmosINej87+0dS024ymIvs+nvDtb1bdM+4ewx9aAM668GW9zHdWq6pqMGl3bu9xp8TR+U5ckuAShdQxJJCsOpxjNMn8C6fcatJqDXd2rSXP2oooixv2bPvbN5XBOAWwO3QYtR2ni0SKZNb0RkBG4LpEoJHfB+0nH5GrGoW/iGS6LabqmmW9vgYjudOkmfPf5lnQfpQBWPhDTzavb+dc7GsrayJ3LnZAzMh+794lznt0wBVN/AGmtb3lsLu8S2uIpoliTywIhKfmKnZuOMnG8sBmtfyNe/svy/7S03+0N+fP/s9/K2+nl+dnPvv/Cm6fb+IY7oNqWqaZcW+DmO206SF89vmadx+lAFNvCFvcfan1HUr/UJ7i3+ziacxI0Sbt3yCNFAO4A5IJyoqC48DWt3Ot3c6lfTXolEhuZFhYnCFANhj2AAEkELnJPPJq3JaeLTIxj1vRFQk7Q2kSkgdsn7SM/kKtX8GvSeT/Z2pabb4TEv2jT3m3N6rtmTaPY5+tAGfZ+CdMs9KudOWW7eG4t47cs8g3KIyxRgQB8wLZz7D8dHSdFGlTXk7X11eXF46vLLcbM5VQowEVQBgDtSW8GvLY3CXOpabJeN/qJY9PdI0/wB5DMS34MtQ2lr4nS6ja81fSJrcH95HDpckbsPZjcMB+RoA2qKxbu18TvdSNZ6vpENuT+7jm0uSR1HuwuFB/IVNcQa81jbpbalpsd4v+vlk093jf/dQTAr+LNQBzPjL/kcdC/7B99/6Mtar6D/yUOx/7BV5/wCjbWq+vw6xF4x0f+1r6xus6fe+X9ks3t9v7y2zndK+e3TGMHrnixoP/JQ7H/sFXn/o21rtX+7P+up5sv8AfV/XRnoVFFFcR6QUUUUAFFFFABRRRQAUUUUAFFFFABRRRQAUUUUAFFFFABRRRQAUUUUAFYN3G58faRIEYoul3ylscAmW0wM++D+RrerJuNQnj8Xadpqlfs89hdTuMc745LdV5+krfpQBrUUUUAFFFFABRRRQAUUUUAFcL4y/5HHQv+wfff8Aoy1ruq4Xxl/yOOhf9g++/wDRlrWtD+IjnxX8GRX0H/kodj/2Crz/ANG2tehV57oP/JQ7H/sFXn/o21r0KqxP8V/10JwX8CPz/MKKKKwOoKKKKACiiigAooooAKKKKACiiigAooooAKKKKACiiigAryvSvu6j/wBhXUP/AErlr1SvK9K+7qP/AGFdQ/8ASuWuvB/xH6HBmP8ACXr+jOs+Hv8AyKI/7CF//wClc1bf9kaeNV/tRbSNL7bsadBtZ19Gx94DtnOO1Ynw9/5FEf8AYQv/AP0rmrqK5pfEzsp/AgoooqSwooooAKKKKACiiigAooooAKKKKACiiigAooooAKKKKAOJ8f2WoRvb+IbRLOS30qxuzcpcTvEdjeU+V2xvkgQnjjqKXw94e1228UxapqkOnQww2U1uq2t28zM0jxNk7okAAER9etb/AIp0+fVvCOtabahTcXdhPBEGOAXeNlGT25Na1X7SXLyX0M3Rg5+0tqFFFFQaBRRRQAUUUUAFFFFABRRRQAUUUUAFFFFABRRRQAUUUUAFFFFABRRRQAVlz/Yf+Eq0/wAzzP7Q+xXPkY+75W+DzM++7ysfjWpWTcafPJ4u07UlC/Z4LC6gc553ySW7Lx9Im/SgDWooooAKKKKACiiigAooooAK4Xxl/wAjjoX/AGD77/0Za13VcL4y/wCRx0L/ALB99/6Mta1ofxEc+K/gyK+g/wDJQ7H/ALBV5/6Nta9Crz3Qf+Sh2P8A2Crz/wBG2tehVWJ/iv8AroTgv4Efn+YUUUVgdQUUUUAFFFFABRRRQAUUUUAFFFFABRRRQAUUUUAFFFFABXEal4T8OXPxD07z/D+lS/adPvp599nG3myCW1w7ZHzN87cnn5j6mu3rLnv/AC/FWn6d5EZ8+yuZ/OP3l8t4F2j2PmZP+6KALllY2mm2cdpYWsFrbR52QwRhEXJycKOBySfxqxRRQAUUUUAFFFFABRRRQAUUUUAFFFFABRRRQAUUUUAFFFFABRRRQBg+N5Hi8A+I5I3ZHTS7llZTggiJsEGt6svxLf8A9leFdX1HyI5/stlNP5Mn3ZNqFtp9jjFalABRRRQAUUUUAFFFFABRRRQAUUUUAFFFFABRRRQAUUUUAFFFFABRRRQAUUUUAFYN3I48faRGHYI2l3zFc8EiW0wce2T+ZrerLnv/AC/FWn6d5EZ8+yuZ/OP3l8t4F2j2PmZP+6KANSiiigAooooAKKKKACiiigArmvE3hm91rUtPvrHUoLOW0hmhIntDOrrIYz2kTBBiHc9aKKabTuhSipKz2K+heE9R07xCmq6hq1rdmO1ltkit7FoP9Y8bEkmV8/6oDGB1NdbRRRKTk7sUYRguWOwUUUUigooooAKKKKACiiigAooooAKKKKACiiigAooooAKKKKACqMumJLrtpqpkYPbW09sExwRK0TE/h5I/M0UUAXqKKKACiiigAooooAKKKKACiiigAooooAKKKKACiiigAooooAKKKKAKOtaYmtaFqGlSSNGl7bSWzOoyVDqVJH0zV6iigAooooAKKKKACiiigAooooAKKKKACiiigAooooAKKKKACiiigAooooAKKKKACqMumJLrtpqpkYPbW09sExwRK0TE/h5I/M0UUAXqKKKACiiigAooooA//9k=;" vertex="1" parent="1">
          <mxGeometry x="-750" y="60" width="2492.42" height="1010" as="geometry" />
        </mxCell>
      </root>
    </mxGraphModel>
  </diagram>
</mxfile>
